<svg width="283" height="43" viewBox="0 0 283 43" fill="none" xmlns="http://www.w3.org/2000/svg">
<path d="M21 1.65292L25.2382 15.0074L25.3489 15.3561H25.7148H39.4622L28.3303 23.6365L28.0443 23.8493L28.1521 24.189L32.3979 37.5674L21.2984 29.3111L21 29.0891L20.7016 29.3111L9.60207 37.5674L13.8479 24.189L13.9557 23.8493L13.6697 23.6365L2.53776 15.3561H16.2852H16.6511L16.7618 15.0074L21 1.65292Z" fill="#FFBB00" stroke="#FFBB00"/>
<path d="M78 1.65292L82.2382 15.0074L82.3489 15.3561H82.7148H96.4622L85.3303 23.6365L85.0443 23.8493L85.1521 24.189L89.3979 37.5674L78.2984 29.3111L78 29.0891L77.7016 29.3111L66.6021 37.5674L70.8479 24.189L70.9557 23.8493L70.6697 23.6365L59.5378 15.3561H73.2852H73.6511L73.7618 15.0074L78 1.65292Z" fill="#FFBB00" stroke="#FFBB00"/>
<path d="M135 1.65292L139.238 15.0074L139.349 15.3561H139.715H153.462L142.33 23.6365L142.044 23.8493L142.152 24.189L146.398 37.5674L135.298 29.3111L135 29.0891L134.702 29.3111L123.602 37.5674L127.848 24.189L127.956 23.8493L127.67 23.6365L116.538 15.3561H130.285H130.651L130.762 15.0074L135 1.65292Z" fill="#FFBB00" stroke="#FFBB00"/>
<path d="M193 1.65292L197.238 15.0074L197.349 15.3561H197.715H211.462L200.33 23.6365L200.044 23.8493L200.152 24.189L204.398 37.5674L193.298 29.3111L193 29.0891L192.702 29.3111L181.602 37.5674L185.848 24.189L185.956 23.8493L185.67 23.6365L174.538 15.3561H188.285H188.651L188.762 15.0074L193 1.65292Z" fill="#FFBB00" stroke="#FFBB00"/>
<path d="M262 1.65292L266.238 15.0074L266.349 15.3561H266.715H280.462L269.33 23.6365L269.044 23.8493L269.152 24.189L273.398 37.5674L262.298 29.3111L262 29.0891L261.702 29.3111L250.602 37.5674L254.848 24.189L254.956 23.8493L254.67 23.6365L243.538 15.3561H257.285H257.651L257.762 15.0074L262 1.65292Z" fill="#FFBB00" stroke="#FFBB00"/>
</svg>
